<?xml version="1.0" encoding="UTF-8" standalone="no"?>
<!-- Created with Inkscape (http://www.inkscape.org/) -->

<svg
   xmlns:dc="http://purl.org/dc/elements/1.1/"
   xmlns:cc="http://creativecommons.org/ns#"
   xmlns:rdf="http://www.w3.org/1999/02/22-rdf-syntax-ns#"
   xmlns:svg="http://www.w3.org/2000/svg"
   xmlns="http://www.w3.org/2000/svg"
   xmlns:sodipodi="http://sodipodi.sourceforge.net/DTD/sodipodi-0.dtd"
   xmlns:inkscape="http://www.inkscape.org/namespaces/inkscape"
   width="38"
   height="38"
   id="svg2"
   version="1.1"
   inkscape:version="0.48.4 r9939"
   sodipodi:docname="icon_search.svg">
  <defs
     id="defs4" />
  <sodipodi:namedview
     id="base"
     pagecolor="#ffffff"
     bordercolor="#666666"
     borderopacity="1.0"
     inkscape:pageopacity="0.0"
     inkscape:pageshadow="2"
     inkscape:zoom="3.959798"
     inkscape:cx="61.500026"
     inkscape:cy="7.4056316"
     inkscape:document-units="px"
     inkscape:current-layer="layer1"
     showgrid="false"
     inkscape:window-width="1299"
     inkscape:window-height="744"
     inkscape:window-x="67"
     inkscape:window-y="24"
     inkscape:window-maximized="1" />
  <metadata
     id="metadata7">
    <rdf:RDF>
      <cc:Work
         rdf:about="">
        <dc:format>image/svg+xml</dc:format>
        <dc:type
           rdf:resource="http://purl.org/dc/dcmitype/StillImage" />
        <dc:title></dc:title>
      </cc:Work>
    </rdf:RDF>
  </metadata>
  <g
     inkscape:label="Layer 1"
     inkscape:groupmode="layer"
     id="layer1"
     transform="translate(0,-1014.3622)">
    <g
       id="g3039"
       transform="matrix(0.97212938,-0.23444504,0.23444504,0.97212938,-242.06957,33.001208)">
      <g
         style="fill:#ececec"
         id="g3026"
         transform="matrix(0.62343992,-0.78187126,0.78187126,0.62343992,-803.19378,405.38569)">
        <rect
           y="1037.9878"
           x="15.671002"
           height="13.637059"
           width="3.2829957"
           id="rect3028"
           style="fill:#ececec;fill-opacity:1;stroke:none" />
        <path
           id="path3030"
           transform="translate(0,1014.3622)"
           d="m 17.3125,6.6875 c -5.090763,0 -9.21875,4.238514 -9.21875,9.46875 0,5.230236 4.127987,9.46875 9.21875,9.46875 5.090763,0 9.21875,-4.238514 9.21875,-9.46875 0,-5.230236 -4.127987,-9.46875 -9.21875,-9.46875 z m 0,3.4375 c 3.420023,0 6.1875,2.703734 6.1875,6.03125 0,3.327516 -2.767477,6.03125 -6.1875,6.03125 -3.420023,0 -6.21875,-2.703734 -6.21875,-6.03125 0,-3.327516 2.798727,-6.03125 6.21875,-6.03125 z"
           style="fill:#ececec;fill-opacity:1;stroke:none"
           inkscape:connector-curvature="0" />
      </g>
      <g
         transform="matrix(0.72102637,-0.69290762,0.69290762,0.72102637,-710.7712,298.82416)"
         id="g3022">
        <rect
           style="fill:#cccccc;fill-opacity:1;stroke:none"
           id="rect3020"
           width="3.2829957"
           height="13.637059"
           x="15.671002"
           y="1037.9878" />
        <path
           inkscape:connector-curvature="0"
           style="fill:#cccccc;fill-opacity:1;stroke:none"
           d="m 17.3125,6.6875 c -5.090763,0 -9.21875,4.238514 -9.21875,9.46875 0,5.230236 4.127987,9.46875 9.21875,9.46875 5.090763,0 9.21875,-4.238514 9.21875,-9.46875 0,-5.230236 -4.127987,-9.46875 -9.21875,-9.46875 z m 0,3.4375 c 3.420023,0 6.1875,2.703734 6.1875,6.03125 0,3.327516 -2.767477,6.03125 -6.1875,6.03125 -3.420023,0 -6.21875,-2.703734 -6.21875,-6.03125 0,-3.327516 2.798727,-6.03125 6.21875,-6.03125 z"
           transform="translate(0,1014.3622)"
           id="path2985" />
      </g>
    </g>
  </g>
</svg>
