<?xml version="1.0" encoding="UTF-8" standalone="no"?>
<!-- Created with Inkscape (http://www.inkscape.org/) -->

<svg
   xmlns:dc="http://purl.org/dc/elements/1.1/"
   xmlns:cc="http://creativecommons.org/ns#"
   xmlns:rdf="http://www.w3.org/1999/02/22-rdf-syntax-ns#"
   xmlns:svg="http://www.w3.org/2000/svg"
   xmlns="http://www.w3.org/2000/svg"
   xmlns:sodipodi="http://sodipodi.sourceforge.net/DTD/sodipodi-0.dtd"
   xmlns:inkscape="http://www.inkscape.org/namespaces/inkscape"
   width="22"
   height="17"
   id="svg3716"
   version="1.1"
   inkscape:version="0.48.4 r9939"
   sodipodi:docname="New document 14">
  <defs
     id="defs3718" />
  <sodipodi:namedview
     id="base"
     pagecolor="#ffffff"
     bordercolor="#666666"
     borderopacity="1.0"
     inkscape:pageopacity="0.0"
     inkscape:pageshadow="2"
     inkscape:zoom="0.35"
     inkscape:cx="375"
     inkscape:cy="520"
     inkscape:document-units="px"
     inkscape:current-layer="layer1"
     showgrid="false"
     inkscape:window-width="1299"
     inkscape:window-height="744"
     inkscape:window-x="67"
     inkscape:window-y="24"
     inkscape:window-maximized="1" />
  <metadata
     id="metadata3721">
    <rdf:RDF>
      <cc:Work
         rdf:about="">
        <dc:format>image/svg+xml</dc:format>
        <dc:type
           rdf:resource="http://purl.org/dc/dcmitype/StillImage" />
        <dc:title></dc:title>
      </cc:Work>
    </rdf:RDF>
  </metadata>
  <g
     inkscape:label="Layer 1"
     inkscape:groupmode="layer"
     id="layer1"
     transform="translate(0,-1035.3622)">
    <g
       id="g3305"
       transform="translate(-484.43651,159.21255)">
      <path
         style="fill:#ffffff;fill-opacity:1;stroke:none"
         d="m 497.51649,888.90247 c -0.0255,-0.18165 -0.0496,-0.38196 -0.0496,-0.57067 0,-2.19234 1.77726,-3.96962 3.96962,-3.96962 2.19236,0 3.96962,1.77728 3.96962,3.96962 0,0.18871 -0.0241,0.38902 -0.0496,0.57067 l -7.84,0 z"
         id="path3300"
         inkscape:connector-curvature="0" />
      <path
         style="fill:#ffffff;fill-opacity:1;stroke:none"
         d="m 485.51649,888.90247 c -0.0255,-0.18165 -0.0496,-0.38196 -0.0496,-0.57067 0,-2.19234 1.77726,-3.96962 3.96962,-3.96962 2.19236,0 3.96962,1.77728 3.96962,3.96962 0,0.18871 -0.0241,0.38902 -0.0496,0.57067 l -7.84,0 z"
         id="path3298"
         inkscape:connector-curvature="0" />
      <path
         inkscape:connector-curvature="0"
         id="path3290"
         d="m 491.51649,892.90247 c -0.0255,-0.18165 -0.0496,-0.38196 -0.0496,-0.57067 0,-2.19234 1.77726,-3.96962 3.96962,-3.96962 2.19236,0 3.96962,1.77728 3.96962,3.96962 0,0.18871 -0.0241,0.38902 -0.0496,0.57067 l -7.84,0 z"
         style="fill:#ffffff;fill-opacity:1;stroke:none" />
      <path
         inkscape:connector-curvature="0"
         style="fill:#ffffff;fill-opacity:1;stroke:none"
         d="m 494.39008,880.51499 c -2.54673,0.57778 -4.14377,3.11214 -3.566,5.65886 0.57778,2.54671 3.11213,4.14377 5.65886,3.56599 2.54673,-0.57779 4.14377,-3.11214 3.566,-5.65885 -0.57779,-2.54672 -3.11213,-4.14378 -5.65886,-3.566 z m 0.30559,1.34699 c 1.80345,-0.40915 3.59712,0.72116 4.00627,2.5246 0.40915,1.80343 -0.72115,3.59712 -2.5246,4.00627 -1.80344,0.40915 -3.59711,-0.72117 -4.00626,-2.5246 -0.40915,-1.80343 0.72114,-3.59712 2.52459,-4.00627 z"
         id="path3279" />
      <path
         id="path3281"
         d="m 488.39008,876.51499 c -2.54673,0.57778 -4.14377,3.11214 -3.566,5.65886 0.57778,2.54671 3.11213,4.14377 5.65886,3.56599 2.54673,-0.57779 4.14377,-3.11214 3.566,-5.65885 -0.57779,-2.54672 -3.11213,-4.14378 -5.65886,-3.566 z m 0.30559,1.34699 c 1.80345,-0.40915 3.59712,0.72116 4.00627,2.5246 0.40915,1.80343 -0.72115,3.59712 -2.5246,4.00627 -1.80344,0.40915 -3.59711,-0.72117 -4.00626,-2.5246 -0.40915,-1.80343 0.72114,-3.59712 2.52459,-4.00627 z"
         style="fill:#ffffff;fill-opacity:1;stroke:none"
         inkscape:connector-curvature="0" />
      <path
         inkscape:connector-curvature="0"
         style="fill:#ffffff;fill-opacity:1;stroke:none"
         d="m 500.39008,876.51499 c -2.54673,0.57778 -4.14377,3.11214 -3.566,5.65886 0.57778,2.54671 3.11213,4.14377 5.65886,3.56599 2.54673,-0.57779 4.14377,-3.11214 3.566,-5.65885 -0.57779,-2.54672 -3.11213,-4.14378 -5.65886,-3.566 z m 0.30559,1.34699 c 1.80345,-0.40915 3.59712,0.72116 4.00627,2.5246 0.40915,1.80343 -0.72115,3.59712 -2.5246,4.00627 -1.80344,0.40915 -3.59711,-0.72117 -4.00626,-2.5246 -0.40915,-1.80343 0.72114,-3.59712 2.52459,-4.00627 z"
         id="path3283" />
    </g>
  </g>
</svg>
