<?xml version="1.0" encoding="UTF-8" standalone="no"?>
<!-- Created with Inkscape (http://www.inkscape.org/) -->

<svg
   xmlns:dc="http://purl.org/dc/elements/1.1/"
   xmlns:cc="http://creativecommons.org/ns#"
   xmlns:rdf="http://www.w3.org/1999/02/22-rdf-syntax-ns#"
   xmlns:svg="http://www.w3.org/2000/svg"
   xmlns="http://www.w3.org/2000/svg"
   xmlns:sodipodi="http://sodipodi.sourceforge.net/DTD/sodipodi-0.dtd"
   xmlns:inkscape="http://www.inkscape.org/namespaces/inkscape"
   width="103"
   height="27"
   id="svg3563"
   version="1.1"
   inkscape:version="0.48.4 r9939"
   sodipodi:docname="New document 8">
  <defs
     id="defs3565" />
  <sodipodi:namedview
     id="base"
     pagecolor="#ffffff"
     bordercolor="#666666"
     borderopacity="1.0"
     inkscape:pageopacity="0.0"
     inkscape:pageshadow="2"
     inkscape:zoom="0.35"
     inkscape:cx="35"
     inkscape:cy="520"
     inkscape:document-units="px"
     inkscape:current-layer="layer1"
     showgrid="false"
     inkscape:window-width="1299"
     inkscape:window-height="744"
     inkscape:window-x="67"
     inkscape:window-y="24"
     inkscape:window-maximized="1" />
  <metadata
     id="metadata3568">
    <rdf:RDF>
      <cc:Work
         rdf:about="">
        <dc:format>image/svg+xml</dc:format>
        <dc:type
           rdf:resource="http://purl.org/dc/dcmitype/StillImage" />
        <dc:title></dc:title>
      </cc:Work>
    </rdf:RDF>
  </metadata>
  <g
     inkscape:label="Layer 1"
     inkscape:groupmode="layer"
     id="layer1"
     transform="translate(0,-1025.3622)">
    <g
       transform="matrix(0.83578122,0,0,0.83578122,0.14040825,1025.18)"
       id="g3370">
      <g
         id="g3372">
        <g
           id="g3374">
          <g
             id="g3376">
            <g
               id="g3378">
              <g
                 id="g3380">
                <path
                   id="path3382"
                   d="m 52.621,20.158 c 0,7.15 5.053,12.146 12.287,12.146 3.795,0 8.615,-2.549 10.174,-7.275 L 69.92,25.008 c -1.003,1.874 -2.703,2.868 -4.92,2.875 -3.477,0 -5.877,-1.932 -6.608,-5.297 l -0.156,-0.723 h 17.341 c 0.026,-0.402 0.051,-0.852 0.051,-1.246 0,-5.9 -2.987,-12.791 -11.407,-12.791 -6.613,0 -11.6,5.261 -11.6,12.238 v 0.094 z m 5.674,-2.172 c 0.626,-3.594 2.838,-5.738 5.926,-5.738 3.146,0 5.307,2.155 5.781,5.759 l 0.021,0.153 -11.755,-0.02 0.027,-0.154 z"
                   inkscape:connector-curvature="0"
                   style="fill:#ffffff" />
                <g
                   id="g3384">
                  <g
                     id="g3386">
                    <g
                       id="g3388">
                      <path
                         id="path3390"
                         d="M 11.839,0.132 C 5.2,0.132 0,5.278 0,11.851 0,18.152 5.307,23.48 11.593,23.48 c 6.46,0 11.716,-5.219 11.716,-11.629 C 23.31,5.388 18.164,0.132 11.839,0.132 z m -0.246,18.79 c -3.814,0 -6.915,-3.171 -6.915,-7.071 0,-1.952 0.687,-3.668 1.992,-4.972 1.241,-1.327 3.174,-2.194 4.923,-2.194 3.946,0 7.035,3.146 7.035,7.166 0,4.03 -3.022,7.071 -7.035,7.071 z"
                         inkscape:connector-curvature="0"
                         style="fill:#ffffff" />
                      <path
                         id="path3392"
                         d="m 11.658,25.036 c -4.495,0 -8.572,2.724 -10.309,6.834 h 20.619 c -1.745,-4.11 -5.82,-6.834 -10.31,-6.834 z"
                         inkscape:connector-curvature="0"
                         style="fill:#ffffff" />
                      <path
                         id="path3394"
                         d="M 51.278,16.156 C 51.278,11.442 49.139,6.605 45.832,3.823 42.101,0.652 37.193,0.174 32.438,0.132 H 26.001 V 31.87 h 6.574 c 4.543,0 9.314,-0.286 13.254,-3.646 3.363,-2.859 5.449,-7.483 5.449,-12.068 z m -9.326,8.347 c -2.872,2.104 -6.023,2.274 -9.555,2.274 H 31.272 V 5.221 h 0.819 c 3.425,0 6.718,0.155 9.447,2.003 2.801,1.926 4.474,5.267 4.474,8.931 0,3.313 -1.482,6.357 -4.06,8.348 z"
                         inkscape:connector-curvature="0"
                         style="fill:#ffffff" />
                      <g
                         id="g3396">
                        <rect
                           id="rect3398"
                           height="31.738001"
                           width="5.0900002"
                           y="0.132"
                           x="97.514"
                           style="fill:#ffffff" />
                        <polygon
                           id="polygon3400"
                           points="102.919,20.134 111.529,31.87 118.363,31.87 108.439,19.818 116.964,8.262 111.014,8.263 "
                           style="fill:#ffffff" />
                      </g>
                      <path
                         id="path3402"
                         d="m 92.605,20.216 c -1.432,-1.077 -3.269,-1.739 -5.037,-2.292 l -0.473,-0.148 c -2.628,-0.841 -4.896,-1.57 -4.896,-3.167 v -0.091 c 0,-1.433 1.302,-2.359 3.312,-2.359 2.053,0 4.141,0.662 6.389,2.028 l 0.031,0.02 2.678,-3.633 -0.037,-0.024 C 91.929,8.806 88.511,7.72 85.65,7.72 c -5.045,0 -8.566,3.021 -8.566,7.344 v 0.09 c 0,4.568 3.877,6.042 7.514,7.07 0.188,0.057 0.373,0.112 0.559,0.17 2.559,0.774 4.762,1.44 4.762,3.146 v 0.091 c 0,1.594 -1.375,2.544 -3.676,2.544 -2.53,0 -5.309,-1.045 -7.819,-2.938 l -0.038,-0.027 -2.584,3.691 -0.021,0.031 0.029,0.024 c 2.904,2.288 6.756,3.653 10.299,3.653 5.504,0 8.929,-2.899 8.929,-7.569 v -0.089 c -0.005,-1.959 -0.8,-3.508 -2.433,-4.735 z"
                         inkscape:connector-curvature="0"
                         style="fill:#ffffff" />
                    </g>
                  </g>
                </g>
              </g>
            </g>
            <g
               id="g3404">
              <g
                 id="g3406">
                <path
                   id="path3408"
                   d="m 120.611,7.207 c 1.248,0 2.291,0.978 2.291,2.26 0,1.307 -1.043,2.285 -2.291,2.285 -1.242,0 -2.287,-0.979 -2.287,-2.26 0,-1.307 1.045,-2.285 2.287,-2.285 z m 0,4.212 c 1.07,0 1.924,-0.841 1.924,-1.953 0,-1.093 -0.854,-1.93 -1.924,-1.93 -1.065,0 -1.922,0.837 -1.922,1.955 0,1.087 0.857,1.928 1.922,1.928 z m -0.845,-3.242 h 0.963 c 0.627,0 0.929,0.233 0.929,0.758 0,0.47 -0.304,0.67 -0.696,0.715 l 0.757,1.16 h -0.396 L 120.6,9.68 h -0.469 v 1.13 h -0.365 V 8.177 z m 0.365,1.175 h 0.452 c 0.368,0 0.708,-0.019 0.708,-0.434 0,-0.366 -0.312,-0.41 -0.594,-0.41 h -0.566 v 0.844 z"
                   inkscape:connector-curvature="0"
                   style="fill:#ffffff" />
              </g>
            </g>
          </g>
        </g>
      </g>
    </g>
  </g>
</svg>
